<svg version="1.1" id="Layer_1" xmlns="http://www.w3.org/2000/svg" xmlns:xlink="http://www.w3.org/1999/xlink" x="0px" y="0px"
	 width="100%" viewBox="0 0 500 500" enable-background="new 0 0 500 500" xml:space="preserve">
<path fill="transparent" opacity="1.000000" stroke="none" 
	d="
M316.000000,501.000000 
	C210.666687,501.000000 105.833382,501.000000 1.000056,501.000000 
	C1.000037,334.333405 1.000037,167.666794 1.000019,1.000146 
	C167.666565,1.000097 334.333130,1.000097 500.999756,1.000049 
	C500.999847,167.666519 500.999847,334.333038 500.999939,500.999786 
	C439.500000,501.000000 378.000000,501.000000 316.000000,501.000000 
M389.379333,383.002625 
	C391.149048,381.237946 392.840576,379.385559 394.703186,377.725067 
	C400.288696,372.745819 404.041138,364.540375 413.808014,367.384338 
	C413.808014,273.847809 413.808014,180.967407 413.808014,88.175598 
	C320.598267,88.175598 227.716675,88.175598 134.345337,88.175598 
	C136.362045,95.003426 132.950684,99.199402 128.487228,103.156097 
	C124.754463,106.465050 121.148026,109.992783 117.981941,113.832832 
	C116.374069,115.782959 115.007820,118.627769 114.985138,121.081543 
	C114.764977,144.908218 115.487793,168.762039 114.577484,192.555923 
	C114.140671,203.973297 116.681786,212.601532 125.847809,219.695190 
	C131.349899,223.953308 137.419571,228.740799 134.305908,237.662262 
	C153.226120,237.662262 171.304108,237.662262 189.852798,237.662262 
	C189.852798,235.821548 189.852798,234.194107 189.852798,232.566681 
	C189.852783,220.235733 189.724884,207.902237 189.972229,195.576248 
	C190.016052,193.392670 191.096252,190.741684 192.596466,189.157562 
	C200.269669,181.055389 208.162781,173.155197 216.174438,165.385941 
	C217.532425,164.069046 219.839310,163.056824 221.713669,163.047226 
	C250.207397,162.901138 278.702240,162.908875 307.196167,163.035934 
	C308.930725,163.043671 311.081665,163.917542 312.322662,165.124695 
	C320.561768,173.138992 328.681671,181.281143 336.636841,189.576843 
	C337.948120,190.944260 338.922180,193.268204 338.931732,195.155792 
	C339.075500,223.482895 339.075836,251.811188 338.930115,280.138275 
	C338.920502,282.012695 337.915070,284.316284 336.602753,285.678253 
	C328.858948,293.715057 320.984924,301.634705 312.907684,309.334686 
	C311.330872,310.837891 308.681458,311.928284 306.502808,311.970428 
	C293.843323,312.215393 281.176727,312.081635 268.512543,312.102203 
	C267.087830,312.104523 265.663391,312.271820 264.435883,312.350006 
	C264.435883,330.896942 264.435883,348.965149 264.435883,367.880737 
	C272.080139,364.866089 276.273315,369.471313 280.566772,374.114807 
	C283.730957,377.536896 286.950256,380.971680 290.552002,383.900269 
	C292.520294,385.500732 295.327728,386.937195 297.768219,386.956024 
	C325.261230,387.167999 352.756866,387.022125 380.250702,387.172638 
	C383.868317,387.192413 386.743988,386.538574 389.379333,383.002625 
M237.149673,366.229065 
	C237.149597,348.078918 237.252090,329.927490 237.021362,311.780273 
	C236.992065,309.475647 235.781845,306.643066 234.164185,304.988068 
	C221.944992,292.486694 209.557861,280.145813 197.019272,267.964691 
	C195.348495,266.341522 192.542496,265.068146 190.244370,265.038971 
	C171.764114,264.804535 153.278824,264.831055 134.797440,265.015961 
	C132.762115,265.036316 130.246292,266.044983 128.792038,267.458313 
	C115.897240,279.990112 103.133911,292.659698 90.510910,305.465179 
	C89.094017,306.902557 88.094963,309.428192 88.074936,311.460724 
	C87.891273,330.108673 87.902527,348.759674 88.064674,367.408020 
	C88.081146,369.303497 88.972237,371.664673 90.282104,373.002167 
	C102.980354,385.968658 115.798378,398.820160 128.758316,411.524872 
	C130.201736,412.939850 132.731766,413.928894 134.769287,413.948853 
	C153.417252,414.131592 172.068512,414.134277 190.716324,413.943665 
	C192.736053,413.923035 195.223572,412.840454 196.675339,411.415985 
	C209.391678,398.939056 221.988388,386.337219 234.420837,373.577820 
	C235.934967,372.023834 236.268829,369.319794 237.149673,366.229065 
z"/>
<path fill="currentColor" opacity="1.000000" stroke="none" 
	d="
M389.127319,383.275269 
	C386.743988,386.538574 383.868317,387.192413 380.250702,387.172638 
	C352.756866,387.022125 325.261230,387.167999 297.768219,386.956024 
	C295.327728,386.937195 292.520294,385.500732 290.552002,383.900269 
	C286.950256,380.971680 283.730957,377.536896 280.566772,374.114807 
	C276.273315,369.471313 272.080139,364.866089 264.435883,367.880737 
	C264.435883,348.965149 264.435883,330.896942 264.435883,312.350006 
	C265.663391,312.271820 267.087830,312.104523 268.512543,312.102203 
	C281.176727,312.081635 293.843323,312.215393 306.502808,311.970428 
	C308.681458,311.928284 311.330872,310.837891 312.907684,309.334686 
	C320.984924,301.634705 328.858948,293.715057 336.602753,285.678253 
	C337.915070,284.316284 338.920502,282.012695 338.930115,280.138275 
	C339.075836,251.811188 339.075500,223.482895 338.931732,195.155792 
	C338.922180,193.268204 337.948120,190.944260 336.636841,189.576843 
	C328.681671,181.281143 320.561768,173.138992 312.322662,165.124695 
	C311.081665,163.917542 308.930725,163.043671 307.196167,163.035934 
	C278.702240,162.908875 250.207397,162.901138 221.713669,163.047226 
	C219.839310,163.056824 217.532425,164.069046 216.174438,165.385941 
	C208.162781,173.155197 200.269669,181.055389 192.596466,189.157562 
	C191.096252,190.741684 190.016052,193.392670 189.972229,195.576248 
	C189.724884,207.902237 189.852783,220.235733 189.852798,232.566681 
	C189.852798,234.194107 189.852798,235.821548 189.852798,237.662262 
	C171.304108,237.662262 153.226120,237.662262 134.305908,237.662262 
	C137.419571,228.740799 131.349899,223.953308 125.847809,219.695190 
	C116.681786,212.601532 114.140671,203.973297 114.577484,192.555923 
	C115.487793,168.762039 114.764977,144.908218 114.985138,121.081543 
	C115.007820,118.627769 116.374069,115.782959 117.981941,113.832832 
	C121.148026,109.992783 124.754463,106.465050 128.487228,103.156097 
	C132.950684,99.199402 136.362045,95.003426 134.345337,88.175598 
	C227.716675,88.175598 320.598267,88.175598 413.808014,88.175598 
	C413.808014,180.967407 413.808014,273.847809 413.808014,367.384338 
	C404.041138,364.540375 400.288696,372.745819 394.703186,377.725067 
	C392.840576,379.385559 391.149048,381.237946 389.127319,383.275269 
z"/>
<path fill="currentColor" opacity="1.000000" stroke="none" 
	d="
M237.149689,366.688904 
	C236.268829,369.319794 235.934967,372.023834 234.420837,373.577820 
	C221.988388,386.337219 209.391678,398.939056 196.675339,411.415985 
	C195.223572,412.840454 192.736053,413.923035 190.716324,413.943665 
	C172.068512,414.134277 153.417252,414.131592 134.769287,413.948853 
	C132.731766,413.928894 130.201736,412.939850 128.758316,411.524872 
	C115.798378,398.820160 102.980354,385.968658 90.282104,373.002167 
	C88.972237,371.664673 88.081146,369.303497 88.064674,367.408020 
	C87.902527,348.759674 87.891273,330.108673 88.074936,311.460724 
	C88.094963,309.428192 89.094017,306.902557 90.510910,305.465179 
	C103.133911,292.659698 115.897240,279.990112 128.792038,267.458313 
	C130.246292,266.044983 132.762115,265.036316 134.797440,265.015961 
	C153.278824,264.831055 171.764114,264.804535 190.244370,265.038971 
	C192.542496,265.068146 195.348495,266.341522 197.019272,267.964691 
	C209.557861,280.145813 221.944992,292.486694 234.164185,304.988068 
	C235.781845,306.643066 236.992065,309.475647 237.021362,311.780273 
	C237.252090,329.927490 237.149597,348.078918 237.149689,366.688904 
M147.815765,309.694794 
	C145.643463,310.573883 143.230759,311.101746 141.341721,312.394684 
	C134.296295,317.216949 131.606262,323.878479 132.835938,332.460327 
	C133.466751,336.862885 133.454300,341.501221 132.839157,345.908325 
	C131.620529,354.638824 134.265030,361.490570 141.463898,366.461548 
	C143.219498,367.673828 145.421219,368.892883 147.448959,368.947205 
	C157.093567,369.205719 166.755005,368.865845 176.397400,369.162872 
	C180.105225,369.277130 182.327271,367.657379 185.045135,365.510071 
	C191.150620,360.686127 193.149734,354.815521 192.324997,347.277802 
	C191.785248,342.344666 191.689911,337.233826 192.340897,332.328033 
	C193.481323,323.733826 190.729782,317.116821 183.742935,312.267120 
	C181.982727,311.045349 179.747482,309.864166 177.700058,309.809723 
	C168.055344,309.553223 158.400024,309.695038 147.815765,309.694794 
z"/>
<path fill="transparent" opacity="1.000000" stroke="none" 
	d="
M148.282135,309.694763 
	C158.400024,309.695038 168.055344,309.553223 177.700058,309.809723 
	C179.747482,309.864166 181.982727,311.045349 183.742935,312.267120 
	C190.729782,317.116821 193.481323,323.733826 192.340897,332.328033 
	C191.689911,337.233826 191.785248,342.344666 192.324997,347.277802 
	C193.149734,354.815521 191.150620,360.686127 185.045135,365.510071 
	C182.327271,367.657379 180.105225,369.277130 176.397400,369.162872 
	C166.755005,368.865845 157.093567,369.205719 147.448959,368.947205 
	C145.421219,368.892883 143.219498,367.673828 141.463898,366.461548 
	C134.265030,361.490570 131.620529,354.638824 132.839157,345.908325 
	C133.454300,341.501221 133.466751,336.862885 132.835938,332.460327 
	C131.606262,323.878479 134.296295,317.216949 141.341721,312.394684 
	C143.230759,311.101746 145.643463,310.573883 148.282135,309.694763 
z"/>
</svg>